<svg xmlns="http://www.w3.org/2000/svg" viewBox="140 135 220 220">
  <circle cx="329.38" cy="324.72" r="21.74" fill="#FF55A3"/>
  <path d="M292.36,298.92c-5.73-5.73-14.48-7.72-21.81-4.27a59.6,59.6,0,0,1-68.71-94.78c14.42-15.37,35.62-22.08,57.28-17.31A57.9,57.9,0,0,1,286,197.13c.5.46,1,.92,1.45,1.4A59.73,59.73,0,0,1,299.26,266c-3.42,7.29-1.36,16,4.33,21.69h0A20,20,0,0,0,335.88,282c17.26-37.92,9.54-84.33-22.35-114A99.7,99.7,0,0,0,174.78,311.13c.76.75,1.52,1.49,2.3,2.23A99.76,99.76,0,0,0,287,331.23c12.5-5.77,15.22-22.43,5.48-32.16Z" fill="#0B3D91"/>
</svg>
